<?xml version="1.0" encoding="utf-8"?>
<!-- Generator: Adobe Illustrator 16.0.4, SVG Export Plug-In . SVG Version: 6.00 Build 0)  -->
<!DOCTYPE svg PUBLIC "-//W3C//DTD SVG 1.1//EN" "http://www.w3.org/Graphics/SVG/1.1/DTD/svg11.dtd">
<svg version="1.1" id="sevice-layer" xmlns="http://www.w3.org/2000/svg" xmlns:xlink="http://www.w3.org/1999/xlink" x="0px"
	 y="0px" width="69px" height="65px" viewBox="14.532 13.892 69 65" enable-background="new 14.532 13.892 69 65"
	 xml:space="preserve">
<path fill="#19870E" d="M83.532,37.869c0,0-15.285-10.929-25.127-0.103c9.842-10.826-7.873-23.874-7.873-23.874
	S32.817,26.94,42.741,37.869c-9.924-10.929-25.209,0-25.209,0s6.428,18.596,20.395,14.818c-13.966,3.777-7.79,23.977-7.79,23.977
	s20.395,0.467,20.395-15.279c0,15.746,20.396,15.279,20.396,15.279s6.175-18.231-7.603-24.137
	C77.103,58.432,83.532,37.869,83.532,37.869z M50.532,54.003c-2.984,0-5.413-2.427-5.413-5.412s2.429-5.413,5.413-5.413
	s5.413,2.428,5.413,5.413S53.516,54.003,50.532,54.003z"/>
</svg>
