<?xml version="1.0" encoding="utf-8"?>
<!-- Generator: Adobe Illustrator 16.0.4, SVG Export Plug-In . SVG Version: 6.00 Build 0)  -->
<!DOCTYPE svg PUBLIC "-//W3C//DTD SVG 1.1//EN" "http://www.w3.org/Graphics/SVG/1.1/DTD/svg11.dtd">
<svg version="1.1" id="Layer_1" xmlns="http://www.w3.org/2000/svg" xmlns:xlink="http://www.w3.org/1999/xlink" x="0px" y="0px"
	 width="92.771px" height="66.896px" viewBox="3.951 18.5 92.771 66.896" enable-background="new 3.951 18.5 92.771 66.896"
	 xml:space="preserve">
<path d="M22.562,58.482c0-2-1.289-3.683-3.076-4.308c-0.233-2.288-0.445-4.688-0.622-7.166L65.51,63.064L96.723,33L45.182,19.257
	L3.951,41.876l12.396,4.266c0.073,1.705,0.168,4.572,0.17,8.02c-1.808,0.613-3.117,2.306-3.117,4.32
	c0,1.938,1.207,3.584,2.906,4.254c-0.227,4.322-0.668,8.789-1.475,12.64c5.154,0.287,7.731,0,7.731,0s-1.058-5.188-2.112-13.045
	C21.717,61.518,22.562,60.102,22.562,58.482z"/>
<path d="M73.242,59.057l-7.521,7.078L32.297,53.9c0,0-2.864,2.863-3.15,7.444c-0.286,4.582,0,10.882,0,10.882s7.731-2.006,12.026,0
	c4.295,2.004,18.038,10.594,19.185,13.17c3.723-3.147,14.315-13.742,14.315-13.742s2.304-7.709,0-11.453
	C73.242,59.057,73.242,59.057,73.242,59.057z"/>
</svg>
