<?xml version="1.0" encoding="utf-8"?>
<!-- Generator: Adobe Illustrator 16.0.4, SVG Export Plug-In . SVG Version: 6.00 Build 0)  -->
<!DOCTYPE svg PUBLIC "-//W3C//DTD SVG 1.1//EN" "http://www.w3.org/Graphics/SVG/1.1/DTD/svg11.dtd">
<svg version="1.1" id="Layer_1" xmlns="http://www.w3.org/2000/svg" xmlns:xlink="http://www.w3.org/1999/xlink" x="0px" y="0px"
	 width="72.122px" height="77.192px" viewBox="13.938 11.631 72.122 77.192" enable-background="new 13.938 11.631 72.122 77.192"
	 xml:space="preserve">
<g>
	<path d="M33.077,27.942c0.308,0.153,0.655,0.326,1.019,0.509l2.296,1.126c-0.355,0.492-0.624,0.957-1.707,2.325
		c-2.138,2.7-6.077,7.674-5.849,11.137c1.032-0.202,3.505-1.689,5.196-2.708c3.144-1.893,6.113-3.681,8.296-3.681
		c0.008,0,0.014,0,0.021,0c3.32,0.019,4.741,4.207,5.995,7.902c0.39,1.147,0.938,2.764,1.39,3.533
		c0.29-1.005,0.449-3.068,0.554-4.402c0.16-2.062,0.312-4.011,0.776-5.299c1.151-3.18,7.52-1.705,16.391,0.726
		c0.699,0.192,1.355,0.372,1.939,0.526c-1.332-1.716-3.746-4.327-5.233-5.937c-1.702-1.842-3.068-3.564-3.677-4.433
		c0.511-0.333,1.08-0.684,1.541-0.969c2.599-1.598,4.086-2.562,4.461-3.797c0.15-0.496,0.076-1.027-0.199-1.457
		c-0.505-0.783-1.456-0.909-1.77-0.951c-3.062-0.406-12.854,1.427-16.771,2.67c0.408-4.805,1.972-8.129-0.823-12.009
		c-1.954-2.711-4.21,0.099-2.819,2.03c1.934,2.683,0.659,4.966,0.126,10.278c-0.176-0.076-0.367-0.16-0.57-0.25
		c-1.188-0.526-2.81-1.245-5.365-2.023c-1.621-0.494-3.142-0.837-4.518-1.02c-3.556-0.471-5.159,0.257-5.443,0.408l-0.421,0.223
		l-0.218,0.423c-0.215,0.418-0.251,0.901-0.101,1.358C27.964,25.313,29.314,26.069,33.077,27.942z"/>
	<path d="M64.999,30.876c0.306,0.375,0.63,0.759,0.981,1.14c6.025,6.517,7.435,8.346,6.631,9.766
		c-0.17,0.302-0.701,0.978-1.975,0.715c-0.9-0.186-2.264-0.56-3.841-0.992c-2.56-0.702-5.741-1.574-8.478-2.069
		c-3.877-0.702-4.793-0.256-4.938-0.159c-0.34,0.984-0.481,2.821-0.62,4.599c-0.281,3.629-0.521,5.895-1.837,6.745
		c-0.315,0.204-0.67,0.309-1.038,0.309c-0.237,0-0.479-0.043-0.718-0.131c-1.512-0.544-2.246-2.709-3.175-5.449
		c-0.889-2.62-2.107-6.208-3.657-6.217c-0.003,0-0.007,0-0.01,0c-1.491,0-4.553,1.844-7.014,3.326
		c-3.892,2.343-6.17,3.631-7.759,2.86c-0.373-0.181-1.021-0.647-1.157-1.729c-0.544-4.326,3.424-9.534,6.028-12.831
		c-9.964,4.359-16.742,12.703-18.205,22.458c-0.977,6.518,0.7,15.043,3.456,19.471c3.283,5.271,8.783,9.41,16.951,12.261
		c3.91,1.364,9.208,2.862,14.19,3.516c19.748,2.595,34.822-9.172,37.02-25.753C87.589,49.484,78.911,36.751,64.999,30.876z
		 M80.695,62.006c-0.328,1.646-1.116,4.934-2.693,8.439c-2.689,5.977-8.595,8.815-9.785,8.658c0,0,0,0-0.001,0
		c-0.103-0.015-0.198-0.039-0.29-0.082c-0.304-0.137-0.507-0.414-0.542-0.742c-0.063-0.6,0.312-0.879,1.22-1.551
		c1.58-1.168,4.869-3.603,6.666-7.595c1.479-3.288,2.408-6.67,3.025-8.907c0.725-2.633,0.943-3.426,1.915-3.297l0.129,0.018
		l0.138,0.058C80.923,57.208,81.598,57.511,80.695,62.006z"/>
</g>
</svg>
