<?xml version="1.0" encoding="utf-8"?>
<!-- Generator: Adobe Illustrator 16.0.4, SVG Export Plug-In . SVG Version: 6.00 Build 0)  -->
<!DOCTYPE svg PUBLIC "-//W3C//DTD SVG 1.1//EN" "http://www.w3.org/Graphics/SVG/1.1/DTD/svg11.dtd">
<svg version="1.1" id="Layer_1" xmlns="http://www.w3.org/2000/svg" xmlns:xlink="http://www.w3.org/1999/xlink" x="0px" y="0px"
	 width="402.244px" height="548.979px" viewBox="278.878 0 402.244 548.979" enable-background="new 278.878 0 402.244 548.979"
	 xml:space="preserve">
<path d="M598.552,152.247h-21.435c0-66.123-44.137-126.602-98.385-126.602c-54.247,0-98.395,60.479-98.395,126.602h-21.429
	c0-77.143,53.746-148.031,119.819-148.031C544.8,4.215,598.552,75.104,598.552,152.247z"/>
<path d="M681.122,172.502c0-2.056-2.535-3.725-5.653-3.725H284.532c-3.125,0-5.653,1.669-5.653,3.725v372.753
	c0,2.056,2.529,3.725,5.653,3.725h390.931c3.119,0,5.653-1.669,5.653-3.725V172.502H681.122z M378.062,212.858h-16.53v-27.551h16.53
	V212.858z M598.469,212.858h-16.53v-27.551h16.53V212.858z"/>
</svg>
