<?xml version="1.0" encoding="UTF-8" standalone="no"?>
<!-- Created with Inkscape (http://www.inkscape.org/) -->

<svg
   xmlns:dc="http://purl.org/dc/elements/1.1/"
   xmlns:cc="http://creativecommons.org/ns#"
   xmlns:rdf="http://www.w3.org/1999/02/22-rdf-syntax-ns#"
   xmlns:svg="http://www.w3.org/2000/svg"
   xmlns="http://www.w3.org/2000/svg"
   xmlns:sodipodi="http://sodipodi.sourceforge.net/DTD/sodipodi-0.dtd"
   xmlns:inkscape="http://www.inkscape.org/namespaces/inkscape"
   id="svg4331"
   version="1.1"
   inkscape:version="0.48.0 r9654"
   width="932"
   height="912"
   sodipodi:docname="PICTO_banc-2.svg">
  <metadata
     id="metadata4337">
    <rdf:RDF>
      <cc:Work
         rdf:about="">
        <dc:format>image/svg+xml</dc:format>
        <dc:type
           rdf:resource="http://purl.org/dc/dcmitype/StillImage" />
        <dc:title></dc:title>
      </cc:Work>
    </rdf:RDF>
  </metadata>
  <defs
     id="defs4335" />
  <sodipodi:namedview
     pagecolor="#ffffff"
     bordercolor="#666666"
     borderopacity="1"
     objecttolerance="10"
     gridtolerance="10"
     guidetolerance="10"
     inkscape:pageopacity="0"
     inkscape:pageshadow="2"
     inkscape:window-width="1280"
     inkscape:window-height="968"
     id="namedview4333"
     showgrid="false"
     inkscape:zoom="0.64254386"
     inkscape:cx="112.75718"
     inkscape:cy="443.89721"
     inkscape:window-x="-4"
     inkscape:window-y="-4"
     inkscape:window-maximized="1"
     inkscape:current-layer="svg4331" />
  <path
     style="color:#000000;fill:#580000;fill-opacity:1;stroke:none;stroke-width:13.69999981000000000;marker:none;visibility:visible;display:inline;overflow:visible;enable-background:accumulate"
     d="m 218.15024,755.93126 c -5.58973,-1.09923 -6.36104,3.88232 12.20432,-78.82176 7.33694,-32.68426 13.34255,-61.54845 13.34579,-64.14261 0.003,-2.59418 -1.56076,-5.31787 -3.47555,-6.05264 -1.9148,-0.73479 -19.74258,-1.33596 -39.61729,-1.33596 l -36.13584,0 0,-18.70816 0,-18.70817 39.61729,0 39.61729,0 0,-35.21536 0,-35.21537 -39.61729,0 -39.61729,0 0,-30.81344 0,-30.81345 39.61729,0 39.61729,0 0,-13.20576 0,-13.20576 -38.24169,0 -38.24169,0 -1.3756,-6.878 c -0.75658,-3.78291 -1.3756,-17.15374 -1.3756,-29.71297 l 0,-22.83496 39.61729,0 39.61729,0 0,-8.80384 0,-8.80385 15.40672,0 15.40672,0 0,8.80385 0,8.80384 193.68451,0 193.68451,0 0,-9.90432 0,-9.90433 15.40673,0 15.40672,0 0,9.90433 0,9.90432 31.91392,0 31.91393,0 0,24.06728 c 0,13.23701 -0.96591,26.60784 -2.14649,29.71296 l -2.14648,5.64569 -29.76744,0 -29.76744,0 0,12.88749 0,12.88749 14.85648,1.4031 c 8.17107,0.77171 21.90249,1.41015 30.51429,1.41875 l 15.65779,0.0156 1.39966,10.21151 c 0.76978,5.61633 1.39963,18.98717 1.39963,29.71297 l 0,19.50147 -31.91393,0 -31.91392,0 0,35.21537 0,35.21536 31.91392,0 31.91393,0 0,18.70817 0,18.70816 -31.98973,0 -31.98974,0 1.49502,11.55504 c 0.82226,6.35527 7.75464,39.73455 15.40534,74.17619 7.65069,34.44162 13.41183,63.11963 12.80256,63.72892 -2.01504,2.01502 -29.55101,2.95739 -29.56517,1.0118 -0.007,-1.04893 -6.40781,-29.49394 -14.22267,-63.21118 -7.81484,-33.71722 -14.86958,-67.1443 -15.67715,-74.28241 l -1.46833,-12.97836 -193.40023,0 -193.40022,0 0,6.75351 c 0,7.19417 -10.44614,56.56129 -23.25939,109.92094 l -7.79311,32.45369 -8.13407,1.34483 c -8.45645,1.39816 -9.50005,1.39085 -17.18288,-0.11996 l 0,-4e-5 z m 443.73847,-222.98466 0,-35.21537 -193.68451,0 -193.68451,0 0,35.21537 0,35.21536 193.68451,0 193.68451,0 0,-35.21536 z m 0,-110.04802 0,-13.20576 -193.68451,0 -193.68451,0 0,13.20576 0,13.20576 193.68451,0 193.68451,0 0,-13.20576 z"
     id="path4349"
     inkscape:connector-curvature="0" />
</svg>
