<?xml version="1.0" encoding="utf-8"?>
<!-- Generator: Adobe Illustrator 15.1.0, SVG Export Plug-In . SVG Version: 6.00 Build 0)  -->
<!DOCTYPE svg PUBLIC "-//W3C//DTD SVG 1.1//EN" "http://www.w3.org/Graphics/SVG/1.1/DTD/svg11.dtd">
<svg version="1.1" id="Layer_1" xmlns="http://www.w3.org/2000/svg" xmlns:xlink="http://www.w3.org/1999/xlink" x="0px" y="0px" viewBox="0 0 99.984 77.851" enable-background="new 0 0 99.984 77.851" xml:space="preserve">
<path fill="#010101" d="M93.181,62.32l0.544-0.182l0.363-1.27c0,0-13.97,5.986-43.634,5.986c-29.663,0-45.811-11.974-45.811-11.974
	l0.454,1.995c0,0,0.726,0.907,4.989,3.267c0.635,1.542,1.36,3.084,2.177,4.354c7.167,1.905,21.228,4.445,39.823,4.445
	C69.686,68.942,87.012,64.226,93.181,62.32z"/>
<path fill="#010101" d="M52.087,69.759c-19.957,0-33.473-2.812-39.551-4.354c2.54,4.173,5.624,6.985,7.348,8.437
	c2.449,1.905,6.35,3.991,7.62,3.991c2.902,0.091,58.147-0.182,58.147-0.182l2.631-4.717l4.173-9.524
	C85.742,65.404,69.051,69.759,52.087,69.759z"/>
<path fill="#010101" d="M21.971,55.244c0,0-0.907-29.936,22.043-55.244c11.43,13.97,21.59,24.492,21.59,24.492l0.544,35.651
	L21.971,55.244z"/>
<g>
	<path fill="#010101" d="M58.709,3.084H57.53l-0.182,11.521c0.726,0.998,1.27,1.451,1.905,2.269L58.709,3.084z"/>
</g>
<path fill="#010101" d="M17.707,54.337L0.199,52.523c0,0-2.54-16.691,10.522-29.301c4.808,7.529,6.531,10.704,6.531,10.704
	L17.707,54.337z"/>
<g>
	<path fill="#010101" d="M14.169,22.406h-0.182l-0.091,4.898c0.182,0.182,0.272,0.363,0.363,0.544L14.169,22.406z"/>
	<g>
		<g>
			<path fill="#010101" d="M59.798,60.324l-3.266-0.362v5.987c1.089,0,2.268-0.091,3.356-0.091L59.798,60.324z"/>
			<g>
				<path fill="#010101" d="M35.85,61.141h-9.616v1.996c2.903,0.726,6.169,1.36,9.616,1.905V61.141z"/>
			</g>
		</g>
		<path fill="#010101" d="M14.622,54.609l-0.997-0.091l-0.091,4.264c0.362,0.182,0.726,0.363,1.088,0.545V54.609z"/>
	</g>
</g>
<path fill="#010101" d="M69.232,60.144c0,0-1.814-29.119,9.343-44.269c10.342,7.892,18.869,14.786,18.869,14.786l2.54,25.49
	L69.232,60.144z"/>
<g>
	<g>
		<path fill="#010101" d="M86.649,58.691l-1.361,0.182l-0.544,4.082c0.544-0.182,0.998-0.272,1.451-0.362L86.649,58.691z"/>
	</g>
	<path fill="#010101" d="M91.094,16.963h-0.271l-0.907,6.985c0.182,0.091,0.272,0.182,0.453,0.272L91.094,16.963z"/>
</g>
</svg>
