<?xml version="1.0" encoding="utf-8"?>
<!-- Generator: Adobe Illustrator 15.1.0, SVG Export Plug-In . SVG Version: 6.00 Build 0)  -->
<!DOCTYPE svg PUBLIC "-//W3C//DTD SVG 1.1//EN" "http://www.w3.org/Graphics/SVG/1.1/DTD/svg11.dtd">
<svg version="1.1" id="Layer_1" xmlns="http://www.w3.org/2000/svg" xmlns:xlink="http://www.w3.org/1999/xlink" x="0px" y="0px" viewBox="0 0 100 75.283" enable-background="new 0 0 100 75.283" xml:space="preserve">
<path fill="#010101" d="M45.919,0c-1.021,0.016-1.895,0.738-2.102,1.738h-1.051c-1.204,0-2.18,0.976-2.181,2.18
	c0,1.204,0.976,2.181,2.18,2.181c0,0,0,0,0.001,0h1.002v3.457c-5.676,0.592-11.761,3.199-16.007,6.334l36.895,0.383
	c-4.383-3.229-10.803-6.15-16.527-6.736V6.099h1.002c1.204,0,2.18-0.977,2.18-2.181c0-1.203-0.976-2.18-2.18-2.18H48.08
	C47.869,0.717,46.963-0.012,45.919,0z"/>
<path fill="#010101" d="M89.473,17.049c-1.094,3.953-2.074,6.765-4.135,10.33c-1.969,3.408-3.104,6.459-6.834,6.413
	c-1.334-0.017-2.66-0.285-3.909-0.785l-0.717-3.752c-1.781-4.471-4.407-8.323-7.62-11.44H26.023
	c-1.58,1.534-3.021,3.238-4.281,5.097c-0.021-0.018-0.038-0.031-0.059-0.049c-2.732-2.252-5.422-3.601-8.062-4.026
	c-0.66-0.106-1.31-0.155-1.954-0.138c-1.934,0.054-3.771,0.66-5.303,1.719C2.277,23.24,0.265,28.724,0.02,35.324
	c-0.499,13.393,8.677,21.935,17.333,22.017c0.611,0.006,1.21-0.022,1.797-0.078c2.62,5.586,6.658,10.253,11.598,13.434h30.737
	c5.271-3.394,9.52-8.475,12.109-14.563c1.295-0.095,2.743-0.727,4.557-2.258c4.301-3.637,8.797-10.846,10.262-14.367
	c1.465-3.522,3.004-6.716,4.184-10.018c1.23-3.444,2.311-5.725,3.516-9.015c0.506-1.38,2.582-2.886,3.889-3.712L89.473,17.049z
	 M15.859,42.346c0,3.611,0.542,7.089,1.532,10.341c-5.531-0.06-13.145-5.979-12.727-17.186c0.212-5.702,2.121-9.724,4.35-11.264
	c0.836-0.578,1.711-0.891,2.76-0.904c0.35-0.004,0.715,0.025,1.11,0.089c1.578,0.255,3.566,1.158,5.843,3.034
	c0.237,0.196,0.428,0.365,0.648,0.55C17.135,31.584,15.859,36.796,15.859,42.346z"/>
<rect x="29.854" y="71.473" fill="#010101" width="32.555" height="3.811"/>
</svg>
