<?xml version="1.0" encoding="utf-8"?>
<!-- Generator: Adobe Illustrator 16.0.4, SVG Export Plug-In . SVG Version: 6.00 Build 0)  -->
<!DOCTYPE svg PUBLIC "-//W3C//DTD SVG 1.1//EN" "http://www.w3.org/Graphics/SVG/1.1/DTD/svg11.dtd">
<svg version="1.1" id="Bench" xmlns="http://www.w3.org/2000/svg" xmlns:xlink="http://www.w3.org/1999/xlink" x="0px" y="0px"
	 width="100px" height="100px" viewBox="0 0 100 100" enable-background="new 0 0 100 100" xml:space="preserve">
<path d="M75,47H60v-4h15v-4H60v-1h15v-4H60v-1h15v-4H60v-2h-2v2H22v-2h-2v2H7v4h13v1H7v4h13v1H7v4h13v4H7v2l3,1.167V64h2V50.944
	L25,56h3v15h2V56h40v8h2v-8h15v15h2V56h4v-2L75,47z M22,33h36v1H22V33z M22,38h36v1H22V38z M22,43h36v4H22V43z"/>
</svg>
