<?xml version="1.0" encoding="utf-8"?>
<!-- Generator: Adobe Illustrator 16.0.4, SVG Export Plug-In . SVG Version: 6.00 Build 0)  -->
<!DOCTYPE svg PUBLIC "-//W3C//DTD SVG 1.1//EN" "http://www.w3.org/Graphics/SVG/1.1/DTD/svg11.dtd">
<svg version="1.1"
	 id="svg2" xmlns:sodipodi="http://sodipodi.sourceforge.net/DTD/sodipodi-0.dtd" xmlns:inkscape="http://www.inkscape.org/namespaces/inkscape" xmlns:rdf="http://www.w3.org/1999/02/22-rdf-syntax-ns#" xmlns:svg="http://www.w3.org/2000/svg" xmlns:dc="http://purl.org/dc/elements/1.1/" xmlns:cc="http://web.resource.org/cc/" sodipodi:docname="toilets.svg" sodipodi:version="0.32" inkscape:version="0.45.1" sodipodi:docbase="C:\Dokumente und Einstellungen\ulfl\Eigene Dateien\svn.openstreetmap.org\applications\share\map-icons\svg\public" inkscape:output_extension="org.inkscape.output.svg.inkscape"
	 xmlns="http://www.w3.org/2000/svg" xmlns:xlink="http://www.w3.org/1999/xlink" x="0px" y="0px" width="154.75px"
	 height="147.5px" viewBox="23.25 27.25 154.75 147.5" enable-background="new 23.25 27.25 154.75 147.5" xml:space="preserve">
<sodipodi:namedview  inkscape:cx="101.99768" guidetolerance="10.0" objecttolerance="10.0" inkscape:cy="82.015215" borderopacity="1.0" pagecolor="#ffffff" id="base" bordercolor="#666666" gridtolerance="10.0" inkscape:zoom="1.89" inkscape:current-layer="svg2" inkscape:window-y="58" inkscape:window-x="44" inkscape:window-height="780" inkscape:pageopacity="0.0" inkscape:pageshadow="2" inkscape:window-width="906">
	</sodipodi:namedview>
<rect id="divider" x="100.146" y="30.489" stroke="#000000" stroke-width="5" stroke-linejoin="round" width="11.429" height="141.071"/>
<path id="manhead" stroke="#000000" d="M162.859,41.739c0,6.627-5.372,12-12,12c-6.627,0-12-5.373-12-12s5.373-12,12-12
	C157.487,29.739,162.859,35.112,162.859,41.739L162.859,41.739z"/>
<path id="womanhead" stroke="#000000" stroke-linejoin="round" d="M69.646,42.989c0,6.627-5.373,12-12,12s-12-5.373-12-12
	s5.373-12,12-12S69.646,36.362,69.646,42.989z"/>
<path id="womanbody" stroke="#000000" stroke-linejoin="round" d="M54.921,128.447h4.546l0.757,40.154h7.324l0.758-40.406
	l12.122-0.253L67.295,79.708l3.536-2.021l10.606,34.85l7.829-4.293l-15.91-46.467l-32.072-1.01l-16.415,48.487l7.071,2.778
	l11.617-34.345l3.283,0.505l-13.132,49.245l11.112,0.252l1.515,41.164h7.324L54.921,128.447z"/>
<path id="manbody" stroke="#000000" stroke-linejoin="round" d="M133.965,60.515l30.811-0.252l10.102,7.829l1.768,45.204
	l-8.839-0.252l-1.011-35.861l-4.545-0.505l0.126,92.303l-8.46,0.253l-1.768-54.928l-4.293-0.252l-1.011,55.559l-7.829-0.506
	l-0.504-91.671h-4.799l0.505,35.103l-8.587,0.253l-0.757-44.194L133.965,60.515z"/>
</svg>
