<?xml version="1.0" encoding="utf-8"?>
<!-- Generator: Adobe Illustrator 16.0.4, SVG Export Plug-In . SVG Version: 6.00 Build 0)  -->
<!DOCTYPE svg PUBLIC "-//W3C//DTD SVG 1.1//EN" "http://www.w3.org/Graphics/SVG/1.1/DTD/svg11.dtd">
<svg version="1.1" id="Bench" xmlns="http://www.w3.org/2000/svg" xmlns:xlink="http://www.w3.org/1999/xlink" x="0px" y="0px"
	 width="90px" height="52.173px" viewBox="8.166 19.914 90 52.173" enable-background="new 8.166 19.914 90 52.173"
	 xml:space="preserve">
<path fill="#19870E" d="M93.747,42.18H79.218l-6.825-11.021h4.515c2.448,0,4.42-2.195,4.42-4.895v-1.448
	c0-2.713-1.972-4.901-4.42-4.901H29.426c-2.44,0-4.416,2.188-4.416,4.901v1.448c0,2.699,1.975,4.895,4.416,4.895h4.423L27.033,42.18
	H12.585c-2.44,0-4.419,2.189-4.419,4.895v1.639c0,2.699,1.979,4.896,4.419,4.896h7.38l-7.471,12.08
	c-0.816,1.318-0.139,3.393,1.502,4.645l0.993,0.754c1.646,1.252,3.634,1.189,4.446-0.123L30.17,53.609h45.934L86.9,71.061
	c0.815,1.318,2.809,1.373,4.453,0.123l0.992-0.748c1.639-1.244,2.305-3.316,1.495-4.637l-7.545-12.191h7.451
	c2.44,0,4.419-2.195,4.419-4.895v-1.639C98.166,44.369,96.188,42.18,93.747,42.18z M37.241,42.18l6.815-11.021h18.15l6.818,11.021
	H37.241z"/>
</svg>
