<?xml version="1.0" encoding="utf-8"?>
<!-- Generator: Adobe Illustrator 16.0.4, SVG Export Plug-In . SVG Version: 6.00 Build 0)  -->
<!DOCTYPE svg PUBLIC "-//W3C//DTD SVG 1.1//EN" "http://www.w3.org/Graphics/SVG/1.1/DTD/svg11.dtd">
<svg version="1.1" id="Layer_1" xmlns="http://www.w3.org/2000/svg" xmlns:xlink="http://www.w3.org/1999/xlink" x="0px" y="0px"
	 width="743.872px" height="560px" viewBox="108.074 0 743.872 560" enable-background="new 108.074 0 743.872 560"
	 xml:space="preserve">
<path fill="#010101" d="M449.643,0c-7.595,0.119-14.096,5.49-15.636,12.928h-7.817c-8.956,0-16.217,7.26-16.224,16.216
	c0,8.956,7.26,16.224,16.216,16.224c0,0,0,0,0.008,0h7.453v25.715c-42.221,4.404-87.485,23.796-119.069,47.116l274.447,2.849
	c-32.604-24.019-80.359-45.748-122.938-50.106V45.368h7.454c8.956,0,16.216-7.268,16.216-16.224c0-8.949-7.26-16.216-16.216-16.216
	h-7.818C464.148,5.333,457.409-0.089,449.643,0z"/>
<path fill="#010101" d="M773.624,126.821c-8.138,29.405-15.428,50.322-30.759,76.84c-14.646,25.351-23.09,48.046-50.836,47.704
	c-9.923-0.126-19.786-2.12-29.077-5.839l-5.333-27.91c-13.248-33.258-32.782-61.912-56.683-85.098H301.645
	c-11.753,11.411-22.472,24.086-31.844,37.915c-0.156-0.134-0.283-0.23-0.439-0.364c-20.322-16.752-40.332-26.787-59.97-29.948
	c-4.909-0.789-9.745-1.153-14.535-1.027c-14.387,0.402-28.051,4.91-39.447,12.787c-30.401,20.992-45.368,61.785-47.19,110.88
	c-3.712,99.625,64.545,163.166,128.933,163.776c4.545,0.044,9.001-0.164,13.367-0.581c19.489,41.553,49.526,76.269,86.273,99.931
	h228.641c39.208-25.247,70.815-63.042,90.073-108.328c9.634-0.707,20.404-5.408,33.898-16.797
	c31.993-27.054,65.438-80.679,76.335-106.87c10.897-26.199,22.345-49.958,31.123-74.52c9.149-25.618,17.19-42.586,26.153-67.059
	c3.765-10.266,19.207-21.468,28.93-27.612L773.624,126.821z M226.039,314.995c0,26.86,4.031,52.732,11.396,76.922
	c-41.143-0.446-97.78-44.475-94.671-127.839c1.577-42.415,15.777-72.333,32.358-83.789c6.219-4.299,12.728-6.627,20.531-6.724
	c2.604-0.03,5.318,0.186,8.257,0.662c11.738,1.896,26.526,8.614,43.463,22.568c1.763,1.458,3.184,2.715,4.82,4.091
	C235.53,234.94,226.039,273.711,226.039,314.995z"/>
<rect x="330.142" y="531.659" fill="#010101" width="242.164" height="28.349"/>
</svg>
