<?xml version="1.0" encoding="utf-8"?>
<!-- Generator: Adobe Illustrator 16.0.4, SVG Export Plug-In . SVG Version: 6.00 Build 0)  -->
<!DOCTYPE svg PUBLIC "-//W3C//DTD SVG 1.1//EN" "http://www.w3.org/Graphics/SVG/1.1/DTD/svg11.dtd">
<svg version="1.1" id="Layer_1" xmlns="http://www.w3.org/2000/svg" xmlns:xlink="http://www.w3.org/1999/xlink" x="0px" y="0px"
	 width="719.208px" height="560px" viewBox="120.395 0 719.208 560" enable-background="new 120.395 0 719.208 560"
	 xml:space="preserve">
<path fill="#010101" d="M790.668,448.282l3.913-1.31l2.611-9.135c0,0-100.489,43.059-313.869,43.059
	c-213.373,0-329.529-86.132-329.529-86.132l3.266,14.351c0,0,5.222,6.523,35.887,23.5c4.568,11.092,9.783,22.184,15.66,31.319
	c51.554,13.703,152.698,31.974,286.456,31.974C621.663,495.916,746.293,461.992,790.668,448.282z"/>
<path fill="#010101" d="M495.07,501.792c-143.556,0-240.779-20.227-284.5-31.319c18.271,30.018,40.455,50.245,52.856,60.689
	c17.616,13.703,45.677,28.708,54.812,28.708c20.875,0.655,418.264-1.309,418.264-1.309l18.926-33.931l30.018-68.509
	C737.158,470.466,617.096,501.792,495.07,501.792z"/>
<path fill="#010101" d="M278.438,397.383c0,0-6.524-215.336,158.561-397.383c82.219,100.489,155.302,176.177,155.302,176.177
	l3.913,256.445L278.438,397.383z"/>
<g>
	<path fill="#010101" d="M542.703,22.184h-8.48l-1.31,82.873c5.223,7.179,9.136,10.438,13.703,16.321L542.703,22.184z"/>
</g>
<path fill="#010101" d="M247.767,390.858L121.828,377.81c0,0-18.271-120.062,75.687-210.769
	c34.585,54.158,46.979,76.997,46.979,76.997L247.767,390.858z"/>
<g>
	<path fill="#010101" d="M222.317,161.171h-1.309l-0.655,35.232c1.31,1.309,1.957,2.611,2.611,3.913L222.317,161.171z"/>
	<g>
		<g>
			<path fill="#010101" d="M550.537,433.924l-23.493-2.604v43.066c7.833,0,16.314-0.655,24.141-0.655L550.537,433.924z"/>
			<g>
				<path fill="#010101" d="M378.273,439.801h-69.17v14.358c20.882,5.222,44.375,9.782,69.17,13.703V439.801z"/>
			</g>
		</g>
		<path fill="#010101" d="M225.576,392.815l-7.172-0.655l-0.655,30.672c2.604,1.31,5.223,2.611,7.827,3.921V392.815z"/>
	</g>
</g>
<path fill="#010101" d="M618.397,432.63c0,0-13.048-209.46,67.207-318.438c74.392,56.769,135.729,106.359,135.729,106.359
	l18.271,183.355L618.397,432.63z"/>
<g>
	<g>
		<path fill="#010101" d="M743.683,422.178l-9.79,1.31l-3.913,29.362c3.913-1.309,7.179-1.956,10.437-2.604L743.683,422.178z"/>
	</g>
	<path fill="#010101" d="M775.656,122.019h-1.949l-6.524,50.245c1.309,0.654,1.956,1.309,3.259,1.956L775.656,122.019z"/>
</g>
</svg>
