<?xml version="1.0" encoding="utf-8"?>
<!-- Generator: Adobe Illustrator 16.0.4, SVG Export Plug-In . SVG Version: 6.00 Build 0)  -->
<!DOCTYPE svg PUBLIC "-//W3C//DTD SVG 1.1//EN" "http://www.w3.org/Graphics/SVG/1.1/DTD/svg11.dtd">
<svg version="1.1" id="Layer_1" xmlns="http://www.w3.org/2000/svg" xmlns:xlink="http://www.w3.org/1999/xlink" x="0px" y="0px"
	 width="90px" height="80px" viewBox="-66.978 -19.767 90 80" enable-background="new -66.978 -19.767 90 80" xml:space="preserve">
<path fill="#CC291D" d="M21.984,54.314l-40.438-71.153c-1.067-1.451-2.505-2.928-3.944-2.928c-1.44,0-2.876,1.476-3.943,2.928
	l-40.509,71.282c-0.381,1.496-0.281,3.936,3.378,5.786c0.016,0,0.029,0.004,0.043,0.004h82.062
	C22.41,58.329,22.405,55.798,21.984,54.314z M-16.886,51.488c-1.228,1.033-2.945,1.546-5.149,1.546
	c-2.226,0-3.971-0.515-5.231-1.546c-1.261-1.031-1.891-2.467-1.891-4.306c0-1.86,0.607-3.305,1.822-4.335
	c1.216-1.032,2.982-1.546,5.3-1.546c2.296,0,4.034,0.517,5.215,1.546c1.181,1.03,1.773,2.477,1.773,4.335
	C-15.046,49.023-15.661,50.457-16.886,51.488z M-16.432,36.666h-11.139l-1.943-31.705c0-2.5,3.35-4.529,7.483-4.529
	c4.132,0,7.482,2.028,7.482,4.529L-16.432,36.666z"/>
</svg>
